<svg width="26" height="26" viewBox="0 0 26 26" fill="none" xmlns="http://www.w3.org/2000/svg">
<path fill-rule="evenodd" clip-rule="evenodd" d="M13 25C19.6274 25 25 19.6274 25 13C25 6.37258 19.6274 1 13 1C6.37258 1 1 6.37258 1 13C1 19.6274 6.37258 25 13 25Z" fill="#F8F8F8" stroke="black" stroke-width="2"/>
<path fill-rule="evenodd" clip-rule="evenodd" d="M17 9C17 11.21 15.21 13 13 13C10.79 13 9 11.21 9 9C9 6.79 10.79 5 13 5C15.21 5 17 6.79 17 9ZM5 19C5 16.34 10.33 15 13 15C15.67 15 21 16.34 21 19V20C21 20.55 20.55 21 20 21H6C5.45 21 5 20.55 5 20V19Z" fill="black"/>
</svg>
