<svg width="20" height="20" viewBox="0 0 20 20" fill="none" xmlns="http://www.w3.org/2000/svg">
<path fill-rule="evenodd" clip-rule="evenodd" d="M12.6553 12.0595H13.3137L16.847 15.6095C17.1887 15.9512 17.1887 16.5095 16.847 16.8512C16.5053 17.1929 15.947 17.1929 15.6053 16.8512L12.0637 13.3095V12.6512L11.8387 12.4179C10.672 13.4179 9.08034 13.9345 7.38867 13.6512C5.07201 13.2595 3.22201 11.3262 2.93867 8.99286C2.50534 5.46786 5.47201 2.50119 8.99701 2.93452C11.3303 3.21786 13.2637 5.06786 13.6553 7.38452C13.9387 9.07619 13.422 10.6679 12.422 11.8345L12.6553 12.0595ZM4.56367 8.30952C4.56367 10.3845 6.23867 12.0595 8.31367 12.0595C10.3887 12.0595 12.0637 10.3845 12.0637 8.30952C12.0637 6.23452 10.3887 4.55952 8.31367 4.55952C6.23867 4.55952 4.56367 6.23452 4.56367 8.30952Z" fill="black"/>
</svg>
