<svg width="20" height="20" viewBox="0 0 20 20" fill="none" xmlns="http://www.w3.org/2000/svg">
<path d="M16.4001 1.59998H3.6001C2.4961 1.59998 1.6001 2.49598 1.6001 3.59998V16.4C1.6001 17.504 2.4961 18.4 3.6001 18.4H16.4001C17.5041 18.4 18.4001 17.504 18.4001 16.4V3.59998C18.4001 2.49598 17.5041 1.59998 16.4001 1.59998ZM14.8001 7.59998H14.0001C13.1441 7.59998 12.8001 7.79998 12.8001 8.39998V9.59998H14.8001L14.4001 11.6H12.8001V17.6H10.8001V11.6H9.2001V9.59998H10.8001V8.39998C10.8001 6.79998 11.6001 5.59998 13.2001 5.59998C14.3601 5.59998 14.8001 5.99998 14.8001 5.99998V7.59998Z" fill="black"/>
</svg>
