<svg width="20" height="20" viewBox="0 0 20 20" fill="none" xmlns="http://www.w3.org/2000/svg">
<g id="Frame">
<path id="Vector" d="M6.4002 1.20001C3.5322 1.20001 1.2002 3.53201 1.2002 6.40001V13.6C1.2002 16.468 3.5322 18.8 6.4002 18.8H13.6002C16.4682 18.8 18.8002 16.468 18.8002 13.6V6.40001C18.8002 3.53201 16.4682 1.20001 13.6002 1.20001H6.4002ZM14.8002 4.40001C15.2402 4.40001 15.6002 4.76001 15.6002 5.20001C15.6002 5.64001 15.2402 6.00001 14.8002 6.00001C14.3602 6.00001 14.0002 5.64001 14.0002 5.20001C14.0002 4.76001 14.3602 4.40001 14.8002 4.40001ZM10.0002 5.60001C12.4282 5.60001 14.4002 7.57201 14.4002 10C14.4002 12.428 12.4282 14.4 10.0002 14.4C7.5722 14.4 5.6002 12.428 5.6002 10C5.6002 7.57201 7.5722 5.60001 10.0002 5.60001ZM10.0002 6.40001C8.0162 6.40001 6.4002 8.01601 6.4002 10C6.4002 11.984 8.0162 13.6 10.0002 13.6C11.9842 13.6 13.6002 11.984 13.6002 10C13.6002 8.01601 11.9842 6.40001 10.0002 6.40001Z" fill="black"/>
</g>
</svg>
