<svg width="20" height="20" viewBox="0 0 20 20" fill="none" xmlns="http://www.w3.org/2000/svg">
<g id="Frame" clip-path="url(#clip0_1099_1632)">
<path id="Vector" d="M9.99981 0.799988C4.92695 0.799988 0.799805 4.92714 0.799805 9.99999C0.799805 13.9537 3.30684 17.3321 6.81436 18.6308C6.71333 17.7301 6.72918 16.2552 6.89587 15.541C7.05198 14.8702 7.90437 11.2662 7.90437 11.2662C7.90437 11.2662 7.64705 10.7508 7.64705 9.98973C7.64705 8.79367 8.34002 7.90126 9.20298 7.90126C9.93696 7.90126 10.2909 8.45231 10.2909 9.11254C10.2909 9.85082 9.82151 10.9536 9.57839 11.9757C9.37564 12.832 10.0077 13.5303 10.8519 13.5303C12.3803 13.5303 13.5553 11.9184 13.5553 9.59215C13.5553 7.53312 12.0761 6.09327 9.96343 6.09327C7.51672 6.09327 6.08052 7.9287 6.08052 9.82567C6.08052 10.5646 6.36499 11.3571 6.72056 11.7885C6.79067 11.8738 6.80093 11.9482 6.7801 12.0349C6.71494 12.3064 6.57007 12.8906 6.54128 13.0103C6.50391 13.1681 6.41658 13.2008 6.25383 13.1251C5.17952 12.625 4.50803 11.0548 4.50803 9.79325C4.50803 7.08063 6.47876 4.58893 10.1906 4.58893C13.1742 4.58893 15.4926 6.71447 15.4926 9.55609C15.4926 12.5201 13.6234 14.9053 11.0298 14.9053C10.1583 14.9053 9.33926 14.4525 9.05911 13.9176C9.05911 13.9176 8.62778 15.5596 8.52293 15.9621C8.34194 16.6583 7.56721 18.1005 7.1783 18.7556C8.06799 19.043 9.01572 19.2 9.99981 19.2C15.0729 19.2 19.1998 15.073 19.1998 9.99999C19.1998 4.92714 15.0729 0.799988 9.99981 0.799988Z" fill="black"/>
</g>
<defs>
<clipPath id="clip0_1099_1632">
<rect width="20" height="20" fill="white"/>
</clipPath>
</defs>
</svg>
