<svg width="20" height="20" viewBox="0 0 20 20" fill="none" xmlns="http://www.w3.org/2000/svg">
<g id="Frame">
<path id="Vector" d="M4.4001 1.59998C2.8537 1.59998 1.6001 2.85358 1.6001 4.39998V15.6C1.6001 17.1464 2.8537 18.4 4.4001 18.4H15.6001C17.1465 18.4 18.4001 17.1464 18.4001 15.6V4.39998C18.4001 2.85358 17.1465 1.59998 15.6001 1.59998H4.4001ZM5.23447 5.19998H8.40947L10.6642 8.40388L13.4001 5.19998H14.4001L11.1157 9.04529L15.1657 14.8H11.9915L9.3751 11.0828L6.2001 14.8H5.2001L8.92353 10.4414L5.23447 5.19998ZM6.76572 5.99998L12.4087 14H13.6345L7.9915 5.99998H6.76572Z" fill="black"/>
</g>
</svg>
